<svg height="40" viewBox="0 0 88 40" width="88" xmlns="http://www.w3.org/2000/svg"><path d="m0 0h88v40h-88z" fill="none"/><path d="m867.5 1268.961v-13.061h-1.729v13.058h-.83v-11.686c0-1.122-1.682-1.069-1.682-1.069h-11.22c-1.726.038-1.442.908-1.442.908l-3.924 7.69a2.608 2.608 0 0 0 -1.282.994h-2.576a.781.781 0 0 1 -.691-.453 2.426 2.426 0 0 0 .671-1.174 3.314 3.314 0 0 0 .16-1.053v-2.554c0-.268-.238-.706-.816-.209s-.625 2.673-.625 2.673a2.992 2.992 0 0 0 -1.025 1.54c-.228.814.426.974 1 .936a1.443 1.443 0 0 0 1.3.935h2.26a2.619 2.619 0 0 0 -.145.529v1.549c-.642 1.627 0 9.239 0 9.239a.764.764 0 0 0 -.482.8s.295 1.682.534 2.484 1.282.88 1.282.88a2.24 2.24 0 0 0 1.588.749h5.611v.189a4.966 4.966 0 1 0 9.932 0c0-.064 0-.126 0-.189h3.871s.846-.051 1.022.267l.6.6h4.305a1.676 1.676 0 0 0 .776-.353l.212-.495s.283 1.024 2.329 1.024h5.964s1.907-.247 1.907-1.871a1.174 1.174 0 0 0 1.693.212l3.715 1.2a4.966 4.966 0 1 0 9.85-1.2h8.387a.785.785 0 0 0 .811-.777v-2.541h.742s1.271 1.2 1.271.354v-1.059h.564v-9.069z" fill="#898989" transform="translate(-832.483 -1247.942)"/><path d="m853.5 1260.227s.742-1.561 1.963-1.561h7.951s1.2.08 1.2 1.122v2.723s-.06 2.563-1.682 3.184l-11.4 3.8s-1.141.361-1.062-.841a28.309 28.309 0 0 1 3.03-8.427z" fill="#fff" transform="translate(-834.528 -1248.505)"/></svg>