<svg height="40" viewBox="0 0 88 40" width="88" xmlns="http://www.w3.org/2000/svg"><path d="m0 0h88v40h-88z" fill="none"/><path d="m128.866 1283.236v-2.275a1.666 1.666 0 0 0 -.343-1.067l-1.09-1.585-1.153-5.958.314-.687a.444.444 0 0 0 -.314-.654 60.185 60.185 0 0 0 -23.668-5.121c-12.2 0-24.156 7.2-24.156 7.2a53.009 53.009 0 0 0 -9.176 2.662c-3.321 1.515-3.734 3.444-3.734 3.444a11.6 11.6 0 0 0 -.664 5.369c.04 1.241.621 1.425.621 1.425a8.29 8.29 0 0 0 2.656.606h3.966a4.974 4.974 0 0 0 9.366 0h31.342a4.973 4.973 0 0 0 9.454-.275l3.591-.226a1.333 1.333 0 0 0 1.089-.892 2.773 2.773 0 0 1 1.275-1 .976.976 0 0 0 .624-.966z" fill="#898989" transform="translate(-52.875 -1249.94)"/><g fill="#fff"><path d="m86.288 1273.8s-2.656 1.311-.18 1.255c1.227-.028 9.471-.453 17.466-.876l.9-5.762c-7.368.529-14.449 3.534-18.186 5.383z" transform="translate(-56.977 -1250.453)"/><path d="m126.542 1270.374a55.446 55.446 0 0 0 -14.068-2.076c-.291 0-.453 0-.47.006h-.037-.039-.275l-.9 5.739c7.378-.391 14.02-.749 14.02-.749a2.05 2.05 0 0 0 1.35-.7l1.07-1.293c.475-.634-.651-.927-.651-.927z" transform="translate(-62.191 -1250.43)"/><path d="m95.262 1279.905h.818v2.447h1.012v-2.447h.818v5.712h-.818v-2.544h-1.012v2.544h-.818z" transform="translate(-59.048 -1252.784)"/><path d="m100.277 1283.2-1.124-3.3h.866l.658 2.271h.016l.658-2.271h.866l-1.122 3.3v2.415h-.818z" transform="translate(-59.837 -1252.784)"/><path d="m103.567 1279.905h1.2a1.331 1.331 0 0 1 1.452 1.444v.208a1.043 1.043 0 0 1 -.561 1.059 1.085 1.085 0 0 1 .561 1.122v.322a1.368 1.368 0 0 1 -1.533 1.556h-1.115zm.819 2.342h.369c.545 0 .69-.28.69-.8 0-.505-.186-.77-.722-.77h-.337zm0 2.552h.352c.658 0 .707-.4.707-.963s-.105-.866-.7-.866h-.362z" transform="translate(-60.733 -1252.784)"/><path d="m107.67 1279.905h1.316c.97 0 1.444.57 1.444 1.677a1.455 1.455 0 0 1 -.706 1.427l.882 2.608h-.866l-.762-2.439h-.489v2.439h-.818zm.818 2.552h.465c.571 0 .658-.321.658-.89s-.1-.891-.7-.891h-.426z" transform="translate(-61.565 -1252.784)"/><path d="m111.98 1279.905h.817v5.712h-.817z" transform="translate(-62.44 -1252.784)"/><path d="m113.831 1279.905h1.212a1.328 1.328 0 0 1 1.435 1.476v2.671a1.369 1.369 0 0 1 -1.507 1.565h-1.139zm.817 4.941h.379c.458 0 .634-.224.634-.714v-2.751c0-.449-.153-.706-.634-.706h-.379z" transform="translate(-62.815 -1252.784)"/></g></svg>