<svg height="40" viewBox="0 0 88 40" width="88" xmlns="http://www.w3.org/2000/svg"><path d="m0 0h88v40h-88z" fill="none"/><path d="m388.422 1187.543v-4.231a1.935 1.935 0 0 0 -.262-1.044l-.523-.839c.036-6.868-1.157-10.22-1.867-11.853a2.482 2.482 0 0 0 -2.128-1.634h-28.15a22.1 22.1 0 0 0 -10.528 2.972 54.205 54.205 0 0 0 -7.431 5.615c-1.79 1.715-2.539 1.841-2.539 1.841l-5.861 1.887c-1.754.754-2.053 1.716-2.053 1.716l-1.269 3.016s-.671 1.047-1.008 1.55a5.374 5.374 0 0 0 -.336 2.007v3.813c0 .755.912.911.912.911h6.606a4.95 4.95 0 0 0 9.321 0h30.712a4.95 4.95 0 0 0 9.321 0h6.361a.752.752 0 0 0 .72-.491 9.166 9.166 0 0 0 .002-5.236z" fill="#898989" transform="translate(-312.267 -1156.694)"/><g fill="#fff"><path d="m367.917 1170.358-.476 7.757h13.281v-7.757z" transform="translate(-321.145 -1157.193)"/><path d="m396.2 1170.9c-.186-.555-.9-.543-.9-.543h-8.7v7.757h9.651s1.291-.025 1.267-1.174a30.9 30.9 0 0 0 -1.318-6.04z" transform="translate(-325.103 -1157.193)"/><path d="m358.919 1170.358a20.227 20.227 0 0 0 -9.514 2.682 52.549 52.549 0 0 0 -7.119 5.373 3.753 3.753 0 0 0 -1.186 1.587s-.269.794.559.794l11.7-.957a30.352 30.352 0 0 1 6.712-1.678l.478-7.8z" transform="translate(-315.694 -1157.193)"/></g></svg>