<svg height="40" viewBox="0 0 88 40" width="88" xmlns="http://www.w3.org/2000/svg"><path d="m0 0h88v40h-88z" fill="none"/><path d="m1038.992 1190.938s.212-1.976.329-2.986a1.589 1.589 0 0 0 -.753-1.506l-1.2-1.482a.936.936 0 0 0 .752-.516c.187-.471-2.117-.448-2.117-.448a97.747 97.747 0 0 0 -16.77-6.28 35.312 35.312 0 0 0 -11.147-1.341 8.09 8.09 0 0 0 -3.645.918c-3.317 1.389-9.267 4.869-9.267 4.869-6 .353-12.112.939-12.112.939a6.263 6.263 0 0 0 -4.8 3.223 15.749 15.749 0 0 0 -2.893 2.093c-.87.943-.048 1.482-.048 1.529a2.905 2.905 0 0 0 -.046 2.188 2.481 2.481 0 0 0 -.848 1.623c-1.435 1.317 4.945 1.377 4.945 1.377h2.816a5.486 5.486 0 0 0 10.07 0h29.879a5.486 5.486 0 0 0 10.112-.1 37.513 37.513 0 0 0 5.444-.76 2.408 2.408 0 0 0 1.67-1.786 2.126 2.126 0 0 0 -.371-1.554z" fill="#898989" transform="translate(-963.031 -1158.464)"/><g fill="#fff"><path d="m1015.8 1178.658a9.5 9.5 0 0 0 -4.374.8l-6.257 3.645c4.439.01 11.112-.139 16.464-.282l.579-3.349a42.791 42.791 0 0 0 -6.412-.814z" transform="translate(-969.241 -1158.932)"/><path d="m1033.93 1181.628c-1.967-.611-3.686-1.075-5.2-1.431l-.5 2.881c3.886-.109 6.686-.2 6.686-.2 1.39-.568-.986-1.25-.986-1.25z" transform="translate(-973.868 -1159.244)"/></g></svg>