<svg height="40" viewBox="0 0 88 40" width="88" xmlns="http://www.w3.org/2000/svg"><path d="m0 0h88v40h-88z" fill="none"/><path d="m255.208 1264.481a4.476 4.476 0 0 0 -2.424-.046s-8.2 1.652-8.666 1.507c-.15-.047-.354.147-.563.429-7.451-1.439-17.518-2.669-24.25-.558a68.9 68.9 0 0 0 -13.52 6.2c-11.3 1.509-12.028 5.932-12.028 5.932a7.12 7.12 0 0 0 -.378 4.99 3.8 3.8 0 0 0 0 2.832c.405.647 2.516.692 2.516.692h3.249a5.017 5.017 0 0 0 9.448 0h28.38a5.017 5.017 0 0 0 9.54-.285l3.388-1c.384-.141.506-.708.506-.708l.264-2.427c.364-3.378-1.5-4.82-1.5-4.82a7.135 7.135 0 0 0 -.17-2.66 24 24 0 0 0 -2.452-5.3 1.025 1.025 0 0 1 .29-1.4 67.707 67.707 0 0 0 6.777-1.176 36.737 36.737 0 0 0 4.837.9c.708.185 1.338-.9 1.338-.9a.838.838 0 0 0 .705-.535s-4.106-1.256-5.287-1.667z" fill="#898989" transform="translate(-182.633 -1249.813)"/><g fill="#fff"><path d="m223.514 1268.251a65.2 65.2 0 0 0 -11.4 5.03c-.561.332-.707.989-.195 1.341a4.336 4.336 0 0 0 1.995.188l14.924-1.3.8-6.244a25.087 25.087 0 0 0 -6.124.985z" transform="translate(-186.261 -1250.397)"/><path d="m247.627 1268.159a72.2 72.2 0 0 0 -11.033-.965h-.1l-.782 6.113 8.606-.751a6.831 6.831 0 0 0 4.37-2.778c.965-1.321-1.061-1.619-1.061-1.619z" transform="translate(-190.984 -1250.383)"/></g></svg>