<svg height="40" viewBox="0 0 88 40" width="88" xmlns="http://www.w3.org/2000/svg"><path d="m0 0h88v40h-88z" fill="none"/><path d="m781.785 1187.028a5.384 5.384 0 0 0 -.69-2.213 5.534 5.534 0 0 0 -.23-2.989 12.989 12.989 0 0 0 -.058-1.666c-.086-.575-.978-.6-.978-.6l-5.373-.345s-2.27-1.121-6.667-2.989a41.035 41.035 0 0 0 -9.6-2.5c-11.092-1.294-17.537.718-17.537.718-2.687.768-9.663 6.016-9.663 6.016-12.095 1.216-15.314 2.423-16.765 2.944s-1.769 1.2-1.769 1.2a27.581 27.581 0 0 0 -1.546 3.535c-.349 1.216.537 4.294.537 4.294s-.111.252-.317.726.773.662 1.611.946a20.362 20.362 0 0 0 2.092.533h2.955a5.012 5.012 0 0 0 9.437 0h34.006a5.011 5.011 0 0 0 9.589-.509l8.722-1.667c.775-.26.689-.23 1.35-1.38a8.787 8.787 0 0 0 .894-4.054z" fill="#898989" transform="translate(-701.995 -1158.301)"/><g fill="#fff"><path d="m773.382 1179.626s-2.7-2.065-3.569-2.626a5.539 5.539 0 0 0 -2.361-.875 60.832 60.832 0 0 0 -7.019-.419h-.533l-.871 5.794c2.037-.116 3.932-.227 5.43-.319 6.274-.383 8.746-.765 8.746-.765s.687-.125.177-.79z" transform="translate(-711.48 -1158.776)"/><path d="m746.76 1176.783-.045.013c-1.317.377-4.449 2.415-7 4.221 0 0-1.656 1.2-.2 1.25 1 .034 7.538-.3 13.576-.64l.88-5.848a33.035 33.035 0 0 0 -7.211 1.004z" transform="translate(-707.522 -1158.791)"/></g></svg>