<svg height="40.009" viewBox="0 0 88 40.009" width="88" xmlns="http://www.w3.org/2000/svg"><path d="m0 0h88v40h-88z" fill="none"/><path d="m123.167 1187.265a6.947 6.947 0 0 0 -.708-2.8l-1.011-12.618c-.405-1.991-3.138-1.856-3.138-1.856h-24.493c-4.978 0-6.6 2.572-6.6 2.572l-6.555 8.055a21.633 21.633 0 0 0 -4.216 1.148c-1.586.808-1.721 3.981-1.721 3.981a38.967 38.967 0 0 0 -.472 6.645 1.318 1.318 0 0 0 1.282 1.383h2.021a4.968 4.968 0 0 0 9.355 0h23.983a4.969 4.969 0 0 0 9.357 0h1.7c.809 0 1.113-.978 1.147-1.653a41.164 41.164 0 0 0 .069-4.857z" fill="#898989" transform="translate(-55.14 -1157.062)"/><g fill="#fff"><path d="m123.7 1173.253a.842.842 0 0 0 -.889-.845h-12.502l-.454 8.4 13.294-.24c.678-.049.723-.827.723-.827z" transform="translate(-62.394 -1157.554)"/><path d="m96.081 1172.408c-3.5 0-4.8 1.459-4.986 1.692l-.016.037-5.716 7.026 17.575-.319.455-8.436z" transform="translate(-57.404 -1157.554)"/></g></svg>