<svg height="40" viewBox="0 0 88 40" width="88" xmlns="http://www.w3.org/2000/svg"><path d="m0 0h88v40h-88z" fill="none"/><path d="m649 1184.424a8.3 8.3 0 0 1 .188-3.547c.3-1.641-.376-2.715-1.667-4.435a37.907 37.907 0 0 0 -4.247-4.275s.726-.377 1.156-.672-2.633-.833-5.913-.995-12.743-.323-15-.323a25.061 25.061 0 0 0 -9.811 1.318c-4.516 1.585-12.8 7.2-12.8 7.2s-9.568 1.426-12.123 2.016-3.117 1.774-3.117 1.774c-.914.915-1.586 3.6-1.586 3.6a7.194 7.194 0 0 0 .243 5.457 3.6 3.6 0 0 0 .456 1.532c.43.726 2.958.886 2.958.886h3.812a5.5 5.5 0 0 0 10.1 0h29.794a5.5 5.5 0 0 0 10.439-1.093c2.416-.733 5.285-1.61 6.043-1.863a2.768 2.768 0 0 0 1.964-2.419c.27-1.124-.644-3.273-.889-4.161z" fill="#898989" transform="translate(-572.409 -1157.338)"/><g fill="#fff"><path d="m632.845 1172.593c-.281 0-.575 0-.881-.008l-.651-.007-.73 6.427c5.7-.321 10.732-.616 10.732-.616a4.652 4.652 0 0 0 1.318-.205l-1.9-5.571c-3.324-.069-6.677-.02-7.888-.02z" transform="translate(-581.733 -1157.817)"/><path d="m619.5 1173.812a57.155 57.155 0 0 0 -9.223 4.951s-1.717 1.024.166 1.058c.939.017 7.581-.337 14-.695l.739-6.491a20.614 20.614 0 0 0 -5.682 1.177z" transform="translate(-577.559 -1157.829)"/><path d="m650.984 1174.878-1.62-1.685a1.934 1.934 0 0 0 -.991-.345c-.781-.064-1.645-.112-2.548-.148l1.637 4.8.02-.009c1.947-.991 3.4-1.718 3.4-1.718a.572.572 0 0 0 .102-.895z" transform="translate(-584.76 -1157.842)"/></g></svg>