<svg height="40" viewBox="0 0 88 40" width="88" xmlns="http://www.w3.org/2000/svg"><path d="m0 0h88v40h-88z" fill="none"/><path d="m517.78 1185.48a28.677 28.677 0 0 0 -.162-4.333 4.228 4.228 0 0 0 -1.366-1.978s-3.11-4.3-3.273-4.549.252-.557.415-.809.107-.323-.415-.36-2.175-.089-2.175-.089c-7.317-.5-19.074-.557-22.292-.377s-5.249.27-8.484 1.6a100.338 100.338 0 0 0 -9.924 5.5 95.021 95.021 0 0 0 -11.559 3.506c-1.582.737-2.391 2.516-2.912 3.919s.018 4.621.018 4.621a1.4 1.4 0 0 0 .131 1.583c.443.642 2.754.687 2.754.687h2.934a4.977 4.977 0 0 0 9.37 0h31.36a4.976 4.976 0 0 0 9.612-.988l5.176-1.085c1.313-.287 1.366-1.258 1.366-1.258s.145-2.75.2-3.829a2.307 2.307 0 0 0 -.774-1.761z" fill="#898989" transform="translate(-443.444 -1157.74)"/><g fill="#fff"><path d="m503.064 1175.307c-1.046 0-2.009.005-2.851.017l-.532 6.426 11.138-.738-.871-5.631c-2.473-.052-4.87-.074-6.884-.074z" transform="translate(-452.412 -1158.229)"/><path d="m492.787 1175.415-.191.01a20.156 20.156 0 0 0 -7.669 1.447 72.369 72.369 0 0 0 -7.415 4s-.915.718-1.267 1.087-.484.945.427 1.01l16.1-1.067.54-6.515c-.193.013-.371.019-.525.028z" transform="translate(-447.611 -1158.246)"/><path d="m524.454 1179.148a13.588 13.588 0 0 0 -1.595-2.859 2.307 2.307 0 0 0 -1.281-.56c-1.976-.116-4.168-.2-6.365-.264l.841 5.44 6.686-.443s2.01-.062 1.714-1.314z" transform="translate(-455.557 -1158.261)"/></g></svg>